<?xml version="1.0" standalone="no"?>
<!DOCTYPE svg PUBLIC "-//W3C//DTD SVG 20010904//EN"
 "http://www.w3.org/TR/2001/REC-SVG-20010904/DTD/svg10.dtd">
<svg version="1.0" xmlns="http://www.w3.org/2000/svg"
 width="1200.000000pt" height="1200.000000pt" viewBox="0 0 1200.000000 1200.000000"
 preserveAspectRatio="xMidYMid meet">
<metadata>
Created by potrace 1.16, written by Peter Selinger 2001-2019
</metadata>
<g transform="translate(0.000000,1200.000000) scale(0.100000,-0.100000)"
fill="#000000" stroke="none">
<path d="M5685 11734 c-142 -8 -464 -44 -615 -69 -1252 -206 -2380 -807 -3250
-1729 -1582 -1678 -2005 -4149 -1071 -6261 937 -2117 3063 -3467 5376 -3412
889 21 1696 223 2475 618 1719 871 2889 2558 3104 4474 241 2148 -731 4232
-2534 5432 -772 514 -1633 821 -2590 924 -180 19 -712 33 -895 23z m710 -54
c1311 -96 2545 -633 3485 -1518 355 -334 625 -654 882 -1047 517 -788 809
-1628 910 -2620 20 -198 17 -836 -5 -1040 -130 -1200 -559 -2216 -1320 -3130
-131 -156 -528 -553 -687 -685 -837 -696 -1852 -1146 -2890 -1279 -313 -41
-402 -46 -770 -46 -369 0 -460 5 -770 46 -1052 137 -2055 583 -2905 1292 -156
130 -552 528 -685 687 -742 893 -1175 1916 -1305 3090 -22 197 -31 736 -16
955 56 797 255 1512 622 2236 49 96 89 179 89 183 0 15 161 278 248 406 214
314 409 549 686 826 277 277 512 472 826 686 134 91 391 248 407 248 5 0 81
37 167 81 690 355 1394 558 2171 624 186 16 672 18 860 5z"/>
<path d="M4148 9121 c-264 -85 -478 -402 -549 -811 -76 -440 14 -900 231
-1188 234 -311 566 -350 826 -97 150 146 252 354 311 634 24 114 27 146 27
341 0 195 -3 227 -27 341 -89 419 -292 705 -556 783 -72 21 -191 20 -263 -3z"/>
<path d="M7570 9117 c-93 -31 -153 -70 -230 -146 -227 -225 -354 -617 -337
-1041 12 -287 77 -521 201 -725 69 -115 141 -193 231 -254 251 -167 529 -103
735 171 343 455 343 1301 0 1756 -166 221 -391 311 -600 239z"/>
<path d="M2931 5283 c-11 -10 -34 -58 -52 -108 -74 -214 -199 -387 -374 -518
-177 -132 -363 -198 -600 -213 -85 -6 -112 -11 -127 -26 -25 -25 -23 -73 3
-99 21 -21 28 -22 143 -16 186 10 329 48 494 131 68 34 92 38 92 15 0 -20 150
-311 220 -426 336 -553 798 -1005 1365 -1335 129 -75 419 -212 565 -266 761
-284 1599 -319 2375 -101 509 144 999 402 1412 744 134 111 371 347 482 480
110 133 252 332 342 480 71 118 219 404 219 424 0 23 24 19 92 -15 165 -83
308 -121 494 -131 115 -6 122 -5 143 16 26 26 28 74 3 99 -15 15 -42 20 -128
26 -460 29 -831 308 -972 729 -17 48 -38 97 -47 107 -40 44 -115 10 -115 -51
0 -17 12 -65 26 -107 56 -164 169 -346 283 -457 28 -27 51 -54 51 -60 0 -6
-32 -67 -71 -135 -417 -728 -1093 -1312 -1873 -1619 -679 -268 -1447 -331
-2156 -180 -1023 220 -1908 855 -2447 1759 -28 47 -61 106 -74 132 l-22 47 70
74 c86 91 163 203 214 311 45 98 79 199 79 238 0 57 -65 87 -109 51z"/>
</g>
</svg>
